<?xml version="1.0" standalone="no"?>
<!DOCTYPE svg PUBLIC "-//W3C//DTD SVG 20010904//EN"
 "http://www.w3.org/TR/2001/REC-SVG-20010904/DTD/svg10.dtd">
<svg version="1.0" xmlns="http://www.w3.org/2000/svg"
 width="1000.000000pt" height="1000.000000pt" viewBox="0 0 1000.000000 1000.000000"
 preserveAspectRatio="xMidYMid meet">
<metadata>
Created by potrace 1.11, written by Peter Selinger 2001-2013
</metadata>
<g transform="translate(0.000000,1000.000000) scale(0.100000,-0.100000)"
fill="#000000" stroke="none">
<path d="M4740 9075 l0 -465 -465 0 -465 0 0 -320 0 -320 465 0 465 0 0 -465
0 -465 315 0 315 0 0 465 0 465 470 0 470 0 0 320 0 320 -470 0 -470 0 0 465
0 465 -315 0 -315 0 0 -465z"/>
<path d="M6710 7870 l0 -30 1170 0 1170 0 0 30 0 30 -1170 0 -1170 0 0 -30z"/>
<path d="M950 7810 l0 -30 1170 0 1170 0 0 30 0 30 -1170 0 -1170 0 0 -30z"/>
<path d="M3220 7260 l0 -30 365 0 365 0 0 30 0 30 -365 0 -365 0 0 -30z"/>
<path d="M6030 7260 l0 -30 365 0 365 0 0 30 0 30 -365 0 -365 0 0 -30z"/>
<path d="M3850 6940 l0 -30 1170 0 1170 0 0 30 0 30 -1170 0 -1170 0 0 -30z"/>
<path d="M3380 6565 l0 -255 145 0 145 0 0 255 0 255 -145 0 -145 0 0 -255z"/>
<path d="M4130 6565 l0 -255 145 0 145 0 0 255 0 255 -145 0 -145 0 0 -255z"/>
<path d="M4880 6565 l0 -255 145 0 145 0 0 255 0 255 -145 0 -145 0 0 -255z"/>
<path d="M5600 6565 l0 -255 145 0 145 0 0 255 0 255 -145 0 -145 0 0 -255z"/>
<path d="M6320 6565 l0 -255 145 0 145 0 0 255 0 255 -145 0 -145 0 0 -255z"/>
<path d="M1580 6385 l0 -255 145 0 145 0 0 255 0 255 -145 0 -145 0 0 -255z"/>
<path d="M2370 6385 l0 -255 145 0 145 0 0 255 0 255 -145 0 -145 0 0 -255z"/>
<path d="M7340 6385 l0 -255 145 0 145 0 0 255 0 255 -145 0 -145 0 0 -255z"/>
<path d="M8130 6385 l0 -255 145 0 145 0 0 255 0 255 -145 0 -145 0 0 -255z"/>
<path d="M3380 5475 l0 -255 145 0 145 0 0 255 0 255 -145 0 -145 0 0 -255z"/>
<path d="M4130 5475 l0 -255 145 0 145 0 0 255 0 255 -145 0 -145 0 0 -255z"/>
<path d="M4850 5475 l0 -255 145 0 145 0 0 255 0 255 -145 0 -145 0 0 -255z"/>
<path d="M5600 5475 l0 -255 145 0 145 0 0 255 0 255 -145 0 -145 0 0 -255z"/>
<path d="M6320 5475 l0 -255 145 0 145 0 0 255 0 255 -145 0 -145 0 0 -255z"/>
<path d="M1580 5295 l0 -255 145 0 145 0 0 255 0 255 -145 0 -145 0 0 -255z"/>
<path d="M2370 5295 l0 -255 145 0 145 0 0 255 0 255 -145 0 -145 0 0 -255z"/>
<path d="M7340 5295 l0 -255 145 0 145 0 0 255 0 255 -145 0 -145 0 0 -255z"/>
<path d="M8130 5295 l0 -255 145 0 145 0 0 255 0 255 -145 0 -145 0 0 -255z"/>
<path d="M3380 4385 l0 -255 145 0 145 0 0 255 0 255 -145 0 -145 0 0 -255z"/>
<path d="M4130 4385 l0 -255 145 0 145 0 0 255 0 255 -145 0 -145 0 0 -255z"/>
<path d="M4850 4385 l0 -255 145 0 145 0 0 255 0 255 -145 0 -145 0 0 -255z"/>
<path d="M5600 4385 l0 -255 145 0 145 0 0 255 0 255 -145 0 -145 0 0 -255z"/>
<path d="M6320 4385 l0 -255 145 0 145 0 0 255 0 255 -145 0 -145 0 0 -255z"/>
<path d="M1580 4205 l0 -255 145 0 145 0 0 255 0 255 -145 0 -145 0 0 -255z"/>
<path d="M2370 4205 l0 -255 145 0 145 0 0 255 0 255 -145 0 -145 0 0 -255z"/>
<path d="M7340 4205 l0 -255 145 0 145 0 0 255 0 255 -145 0 -145 0 0 -255z"/>
<path d="M8130 4205 l0 -255 145 0 145 0 0 255 0 255 -145 0 -145 0 0 -255z"/>
<path d="M3860 3950 l0 -90 295 0 295 0 0 -540 0 -540 -65 0 -65 0 0 -40 c0
-33 3 -40 20 -40 17 0 20 -7 20 -40 0 -36 3 -40 25 -40 23 0 25 -4 25 -40 l0
-40 590 0 590 0 0 40 c0 36 3 40 25 40 23 0 25 4 25 40 0 33 3 40 20 40 17 0
20 7 20 40 l0 40 -65 0 -65 0 0 540 0 540 295 0 295 0 0 90 0 90 -1140 0
-1140 0 0 -90z m1180 -630 l0 -540 -40 0 -40 0 0 540 0 540 40 0 40 0 0 -540z"/>
<path d="M3380 3295 l0 -255 145 0 145 0 0 255 0 255 -145 0 -145 0 0 -255z"/>
<path d="M6320 3295 l0 -255 145 0 145 0 0 255 0 255 -145 0 -145 0 0 -255z"/>
<path d="M1580 3115 l0 -255 145 0 145 0 0 255 0 255 -145 0 -145 0 0 -255z"/>
<path d="M2370 3115 l0 -255 145 0 145 0 0 255 0 255 -145 0 -145 0 0 -255z"/>
<path d="M7340 3115 l0 -255 145 0 145 0 0 255 0 255 -145 0 -145 0 0 -255z"/>
<path d="M8130 3115 l0 -255 145 0 145 0 0 255 0 255 -145 0 -145 0 0 -255z"/>
<path d="M3260 2785 l0 -35 -1140 0 -1140 0 0 -90 0 -90 1140 0 1140 0 0 35 0
35 505 0 505 0 0 90 0 90 -505 0 -505 0 0 -35z"/>
<path d="M5740 2730 l0 -90 495 0 495 0 0 -35 0 -35 1140 0 1140 0 0 90 0 90
-1135 0 -1135 0 0 35 0 35 -500 0 -500 0 0 -90z"/>
<path d="M1070 2400 c0 -5 -6 -10 -14 -10 -27 0 -66 -41 -66 -70 0 -29 39 -70
66 -70 8 0 14 -4 14 -10 0 -5 7 -10 15 -10 8 0 15 4 15 9 0 4 15 12 32 17 64
19 64 109 0 128 -17 5 -32 13 -32 17 0 5 -7 9 -15 9 -8 0 -15 -4 -15 -10z m0
-81 c0 -33 -3 -40 -17 -37 -32 6 -30 78 2 78 11 0 15 -11 15 -41z m74 19 c13
-21 -2 -51 -28 -56 -13 -3 -16 5 -16 38 0 33 3 41 16 38 9 -2 22 -11 28 -20z"/>
<path d="M1210 2320 l0 -90 65 0 c51 0 65 3 65 15 0 11 -12 15 -50 15 -47 0
-50 2 -50 25 0 23 4 25 45 25 33 0 45 4 45 15 0 11 -12 15 -45 15 -38 0 -45 3
-45 20 0 17 7 20 50 20 38 0 50 4 50 15 0 12 -14 15 -65 15 l-65 0 0 -90z"/>
<path d="M1387 2343 c-4 -37 -11 -71 -17 -77 -13 -13 -13 -76 0 -76 6 0 10 9
10 20 0 18 7 20 60 20 53 0 60 -2 60 -20 0 -11 7 -20 15 -20 10 0 15 11 15 35
0 19 -4 35 -10 35 -6 0 -10 32 -10 75 l0 75 -59 0 -58 0 -6 -67z m93 -23 l0
-60 -36 0 c-33 0 -36 2 -30 23 3 12 6 39 6 60 0 34 2 37 30 37 l30 0 0 -60z"/>
<path d="M1550 2320 l0 -90 65 0 c51 0 65 3 65 15 0 11 -12 15 -50 15 -47 0
-50 2 -50 25 0 23 4 25 45 25 33 0 45 4 45 15 0 11 -12 15 -45 15 -38 0 -45 3
-45 20 0 17 7 20 50 20 38 0 50 4 50 15 0 12 -14 15 -65 15 l-65 0 0 -90z"/>
<path d="M1710 2320 c0 -73 3 -90 15 -90 10 0 15 11 15 35 0 32 2 35 31 35 49
0 69 16 69 55 0 42 -20 55 -84 55 l-46 0 0 -90z m95 35 c0 -15 -8 -21 -32 -23
-30 -3 -33 -1 -33 23 0 24 3 26 33 23 24 -2 32 -8 32 -23z"/>
<path d="M1889 2383 c-21 -52 -49 -136 -49 -145 0 -17 32 -7 37 12 4 16 14 20
43 20 30 0 40 -5 45 -20 4 -11 15 -20 27 -20 11 0 18 4 16 8 -1 4 -16 45 -32
90 -26 71 -33 82 -53 82 -16 0 -27 -8 -34 -27z m49 -50 c10 -31 10 -33 -14
-33 -27 0 -29 6 -14 46 12 31 13 30 28 -13z"/>
<path d="M2050 2340 c0 -54 -4 -72 -15 -76 -21 -8 -19 -34 3 -34 31 0 42 22
42 87 l0 63 30 0 30 0 0 -75 c0 -60 3 -75 15 -75 12 0 15 17 15 90 l0 90 -60
0 -60 0 0 -70z"/>
<path d="M2210 2320 l0 -90 51 0 c66 0 89 13 89 50 0 40 -24 60 -71 60 -38 0
-39 1 -39 35 0 24 -5 35 -15 35 -12 0 -15 -17 -15 -90z m97 -21 c20 -20 3 -39
-33 -39 -30 0 -34 3 -34 25 0 21 5 25 28 25 15 0 33 -5 39 -11z"/>
<path d="M2380 2320 c0 -73 3 -90 15 -90 11 0 15 11 15 40 l0 40 40 0 40 0 0
-40 c0 -29 4 -40 15 -40 12 0 15 17 15 90 0 73 -3 90 -15 90 -10 0 -15 -11
-15 -35 0 -34 -1 -35 -40 -35 -39 0 -40 1 -40 35 0 24 -5 35 -15 35 -12 0 -15
-17 -15 -90z"/>
<path d="M2594 2398 c-58 -28 -56 -130 3 -157 64 -29 123 8 123 79 0 71 -62
110 -126 78z m86 -50 c13 -25 13 -31 0 -55 -30 -54 -90 -33 -90 32 0 58 61 74
90 23z"/>
<path d="M2750 2320 l0 -90 65 0 c51 0 65 3 65 15 0 11 -12 15 -50 15 -47 0
-50 2 -50 25 0 23 4 25 45 25 33 0 45 4 45 15 0 11 -12 15 -45 15 -38 0 -45 3
-45 20 0 17 7 20 50 20 38 0 50 4 50 15 0 12 -14 15 -65 15 l-65 0 0 -90z"/>
<path d="M2980 2320 c0 -83 1 -90 20 -90 18 0 20 7 20 75 l0 75 40 0 c29 0 40
4 40 15 0 12 -13 15 -60 15 l-60 0 0 -90z"/>
<path d="M3135 2385 c-35 -34 -35 -96 0 -130 53 -54 145 -12 145 65 0 77 -92
119 -145 65z m93 -17 c17 -17 15 -74 -4 -92 -8 -9 -24 -16 -34 -16 -21 0 -50
35 -50 60 0 45 59 77 88 48z"/>
<path d="M3344 2398 c-67 -32 -52 -150 20 -163 38 -8 70 6 86 34 14 28 -18 38
-37 11 -29 -42 -73 -18 -73 40 0 55 34 77 69 46 12 -11 21 -12 31 -5 13 8 11
13 -9 29 -25 22 -54 24 -87 8z"/>
<path d="M3490 2350 c33 -66 37 -90 15 -90 -8 0 -15 -7 -15 -15 0 -8 9 -15 21
-15 16 0 29 18 60 84 44 95 44 96 24 96 -8 0 -22 -18 -31 -40 -9 -22 -19 -40
-24 -40 -4 0 -15 18 -25 40 -12 26 -25 40 -37 40 -17 0 -15 -6 12 -60z"/>
<path d="M3628 2338 c-2 -44 -9 -73 -16 -76 -18 -6 -16 -72 3 -72 8 0 15 9 15
20 0 18 7 20 55 20 48 0 55 -2 55 -20 0 -12 7 -20 16 -20 14 0 16 8 10 53 -3
28 -6 78 -6 110 l0 57 -64 0 -64 0 -4 -72z m92 -18 l0 -60 -33 0 -34 0 10 60
c9 54 12 60 33 60 23 0 24 -4 24 -60z"/>
<path d="M3829 2383 c-21 -52 -49 -136 -49 -145 0 -17 32 -7 37 12 4 16 14 20
43 20 30 0 40 -5 45 -20 4 -11 15 -20 27 -20 11 0 18 4 16 8 -1 4 -16 45 -32
90 -26 71 -33 82 -53 82 -16 0 -27 -8 -34 -27z m49 -50 c10 -31 10 -33 -14
-33 -27 0 -29 6 -14 46 12 31 13 30 28 -13z"/>
<path d="M3980 2320 c0 -73 3 -90 15 -90 10 0 15 11 15 35 0 32 3 35 28 35 37
0 72 26 72 54 0 36 -30 56 -83 56 l-47 0 0 -90z m85 35 c0 -14 -8 -21 -27 -23
-24 -3 -28 0 -28 23 0 23 4 26 28 23 19 -2 27 -9 27 -23z"/>
<path d="M4164 2398 c-67 -32 -52 -150 20 -163 38 -8 70 6 86 34 14 28 -18 38
-37 11 -29 -42 -73 -18 -73 40 0 55 34 77 69 46 12 -11 21 -12 31 -5 13 8 11
13 -9 29 -25 22 -54 24 -87 8z"/>
<path d="M4300 2395 c0 -9 9 -15 25 -15 24 0 25 -2 25 -75 0 -60 3 -75 15 -75
12 0 15 15 15 75 l0 75 30 0 c20 0 30 5 30 15 0 12 -14 15 -70 15 -56 0 -70
-3 -70 -15z"/>
<path d="M4450 2320 l0 -90 58 0 c44 0 63 5 75 18 21 23 22 46 2 66 -9 9 -11
17 -5 21 17 11 11 54 -9 65 -11 5 -42 10 -70 10 l-51 0 0 -90z m105 40 c0 -10
-12 -16 -37 -18 -33 -3 -38 0 -38 18 0 18 5 21 38 18 25 -2 37 -8 37 -18z m0
-75 c0 -16 -8 -21 -37 -23 -35 -3 -38 -1 -38 23 0 24 3 26 38 23 29 -2 37 -7
37 -23z"/>
<path d="M4630 2320 l0 -90 65 0 c51 0 65 3 65 15 0 11 -12 15 -50 15 -47 0
-50 2 -50 25 0 23 4 25 45 25 33 0 45 4 45 15 0 11 -12 15 -45 15 -38 0 -45 3
-45 20 0 17 7 20 50 20 38 0 50 4 50 15 0 12 -14 15 -65 15 l-65 0 0 -90z"/>
<path d="M4790 2320 c0 -73 3 -90 15 -90 11 0 15 11 15 40 l0 40 40 0 40 0 0
-40 c0 -29 4 -40 15 -40 12 0 15 17 15 90 0 73 -3 90 -15 90 -10 0 -15 -11
-15 -35 0 -34 -1 -35 -40 -35 -39 0 -40 1 -40 35 0 24 -5 35 -15 35 -12 0 -15
-17 -15 -90z"/>
<path d="M4970 2320 c0 -73 3 -90 15 -90 11 0 15 11 15 40 l0 40 40 0 40 0 0
-40 c0 -29 4 -40 15 -40 12 0 15 17 15 90 0 73 -3 90 -15 90 -10 0 -15 -11
-15 -35 0 -34 -1 -35 -40 -35 -39 0 -40 1 -40 35 0 24 -5 35 -15 35 -12 0 -15
-17 -15 -90z"/>
<path d="M5165 2385 c-51 -50 -18 -155 49 -155 55 0 96 39 96 90 0 77 -92 119
-145 65z m93 -17 c17 -17 15 -74 -4 -92 -8 -9 -24 -16 -34 -16 -21 0 -50 35
-50 60 0 45 59 77 88 48z"/>
<path d="M5340 2320 l0 -90 65 0 c51 0 65 3 65 15 0 11 -12 15 -50 15 -47 0
-50 2 -50 25 0 23 4 25 45 25 33 0 45 4 45 15 0 11 -12 15 -45 15 -38 0 -45 3
-45 20 0 17 7 20 45 20 33 0 45 4 45 15 0 12 -13 15 -60 15 l-60 0 0 -90z"/>
<path d="M5570 2320 l0 -90 55 0 c57 0 95 22 95 55 0 29 -38 55 -80 55 -33 0
-40 3 -40 20 0 17 7 20 50 20 38 0 50 4 50 15 0 12 -14 15 -65 15 l-65 0 0
-90z m105 -35 c0 -16 -8 -21 -37 -23 -35 -3 -38 -1 -38 23 0 24 3 26 38 23 29
-2 37 -7 37 -23z"/>
<path d="M5740 2320 c0 -83 1 -90 20 -90 17 0 20 7 20 40 0 29 4 40 15 40 8 0
15 -7 15 -15 0 -9 11 -27 25 -40 53 -54 135 -15 135 65 0 51 -34 90 -80 90
-30 0 -80 -37 -80 -60 0 -5 -7 -10 -15 -10 -10 0 -15 11 -15 35 0 28 -4 35
-20 35 -19 0 -20 -7 -20 -90z m186 35 c29 -44 -13 -114 -53 -89 -30 19 -39 59
-19 88 21 33 51 33 72 1z"/>
<path d="M5998 2338 c-2 -44 -9 -73 -16 -76 -18 -6 -16 -72 3 -72 8 0 15 9 15
20 0 18 7 20 55 20 48 0 55 -2 55 -20 0 -12 7 -20 16 -20 14 0 16 8 10 53 -3
28 -6 78 -6 110 l0 57 -64 0 -64 0 -4 -72z m92 -18 l0 -60 -33 0 -34 0 10 60
c9 54 12 60 33 60 23 0 24 -4 24 -60z"/>
<path d="M6150 2395 c0 -8 4 -15 10 -15 5 0 17 -11 26 -25 14 -22 14 -28 2
-47 -7 -13 -19 -35 -26 -50 -10 -25 -10 -28 8 -28 13 0 27 15 42 43 l23 42 3
-42 c2 -29 8 -43 18 -43 10 0 14 12 14 40 0 22 4 40 9 40 5 0 17 -18 27 -40
14 -30 24 -40 41 -40 l23 0 -20 39 c-11 22 -24 42 -30 46 -14 9 16 65 35 65 8
0 15 7 15 15 0 36 -57 7 -73 -37 -11 -30 -27 -20 -27 17 0 24 -5 35 -15 35
-11 0 -15 -11 -16 -37 0 -34 -2 -36 -12 -19 -32 51 -77 75 -77 41z"/>
<path d="M6390 2320 l0 -90 65 0 c51 0 65 3 65 15 0 11 -12 15 -50 15 -47 0
-50 2 -50 25 0 23 4 25 45 25 33 0 45 4 45 15 0 11 -12 15 -45 15 -38 0 -45 3
-45 20 0 17 7 20 50 20 38 0 50 4 50 15 0 12 -14 15 -65 15 l-65 0 0 -90z"/>
<path d="M6550 2395 c0 -9 9 -15 25 -15 24 0 25 -2 25 -75 0 -60 3 -75 15 -75
12 0 15 15 15 75 l0 75 30 0 c20 0 30 5 30 15 0 12 -14 15 -70 15 -56 0 -70
-3 -70 -15z"/>
<path d="M6700 2320 c0 -73 3 -90 15 -90 11 0 15 11 15 40 l0 40 40 0 40 0 0
-40 c0 -29 4 -40 15 -40 12 0 15 17 15 90 0 73 -3 90 -15 90 -10 0 -15 -11
-15 -35 0 -34 -1 -35 -40 -35 -39 0 -40 1 -40 35 0 24 -5 35 -15 35 -12 0 -15
-17 -15 -90z"/>
<path d="M6914 2398 c-58 -28 -56 -130 3 -157 64 -29 123 8 123 79 0 71 -62
110 -126 78z m86 -50 c13 -25 13 -31 0 -55 -30 -54 -90 -33 -90 32 0 58 61 74
90 23z"/>
<path d="M7070 2320 l0 -90 65 0 c51 0 65 3 65 15 0 11 -12 15 -50 15 -47 0
-50 2 -50 25 0 23 4 25 45 25 33 0 45 4 45 15 0 11 -12 15 -45 15 -38 0 -45 3
-45 20 0 17 7 20 50 20 38 0 50 4 50 15 0 12 -14 15 -65 15 l-65 0 0 -90z"/>
<path d="M7310 2350 c33 -66 37 -90 15 -90 -8 0 -15 -7 -15 -15 0 -8 9 -15 21
-15 16 0 29 18 60 84 44 95 44 96 24 96 -8 0 -22 -18 -31 -40 -9 -22 -19 -40
-24 -40 -4 0 -15 18 -25 40 -12 26 -25 40 -37 40 -17 0 -15 -6 12 -60z"/>
<path d="M7450 2365 c0 -37 4 -47 25 -61 17 -11 36 -14 55 -10 29 5 30 4 30
-29 0 -24 5 -35 15 -35 12 0 15 17 15 90 0 72 -3 90 -14 90 -10 0 -16 -14 -18
-42 -3 -40 -5 -43 -33 -43 -27 0 -31 4 -39 43 -13 57 -36 56 -36 -3z"/>
<path d="M7630 2320 c0 -73 3 -90 15 -90 10 0 15 11 15 35 0 32 3 35 28 35 37
0 72 26 72 54 0 36 -30 56 -83 56 l-47 0 0 -90z m85 35 c0 -14 -8 -21 -27 -23
-24 -3 -28 0 -28 23 0 23 4 26 28 23 19 -2 27 -9 27 -23z"/>
<path d="M7790 2320 l0 -90 65 0 c51 0 65 3 65 15 0 11 -12 15 -50 15 -47 0
-50 2 -50 25 0 23 4 25 45 25 33 0 45 4 45 15 0 11 -12 15 -45 15 -38 0 -45 3
-45 20 0 17 7 20 50 20 38 0 50 4 50 15 0 12 -14 15 -65 15 l-65 0 0 -90z"/>
<path d="M7940 2395 c0 -8 4 -15 10 -15 5 0 17 -11 26 -25 14 -22 14 -28 2
-47 -7 -13 -19 -35 -26 -50 -10 -25 -10 -28 8 -28 13 0 27 15 42 43 l23 42 3
-42 c2 -29 8 -43 18 -43 10 0 14 12 14 40 0 22 4 40 9 40 5 0 17 -18 27 -40
13 -30 24 -40 41 -40 16 0 23 -6 23 -20 0 -11 5 -20 10 -20 6 0 10 9 10 20 0
18 7 20 60 20 53 0 60 -2 60 -20 0 -11 7 -20 15 -20 10 0 15 11 15 35 0 19 -4
35 -10 35 -6 0 -10 32 -10 75 l0 75 -59 0 -58 0 -6 -65 c-4 -36 -13 -75 -20
-86 -14 -19 -15 -19 -27 10 -7 17 -18 35 -26 42 -11 9 -11 16 2 40 8 16 21 29
29 29 8 0 15 7 15 15 0 36 -57 7 -73 -37 -11 -30 -27 -20 -27 17 0 24 -5 35
-15 35 -11 0 -15 -11 -16 -37 0 -34 -2 -36 -12 -19 -32 51 -77 75 -77 41z
m340 -75 l0 -60 -36 0 c-33 0 -36 2 -30 23 3 12 6 39 6 60 0 34 2 37 30 37
l30 0 0 -60z"/>
<path d="M8350 2320 l0 -90 65 0 c51 0 65 3 65 15 0 11 -12 15 -50 15 -47 0
-50 2 -50 25 0 23 4 25 45 25 33 0 45 4 45 15 0 11 -12 15 -45 15 -38 0 -45 3
-45 20 0 17 7 20 50 20 38 0 50 4 50 15 0 12 -14 15 -65 15 l-65 0 0 -90z"/>
<path d="M8520 2320 c0 -73 3 -90 15 -90 11 0 15 11 15 40 0 39 1 40 35 40 34
0 35 -1 35 -40 0 -29 4 -40 15 -40 12 0 15 17 15 90 0 73 -3 90 -15 90 -10 0
-15 -11 -15 -35 0 -33 -2 -35 -35 -35 -33 0 -35 2 -35 35 0 24 -5 35 -15 35
-12 0 -15 -17 -15 -90z"/>
<path d="M8690 2320 c0 -80 2 -90 18 -90 11 0 31 22 52 57 l35 58 3 -58 c2
-42 7 -57 17 -57 12 0 15 18 15 90 0 79 -2 90 -18 90 -10 0 -31 -22 -52 -57
l-35 -58 -3 58 c-2 42 -7 57 -17 57 -12 0 -15 -18 -15 -90z"/>
<path d="M8870 2320 l0 -90 65 0 c51 0 65 3 65 15 0 11 -12 15 -50 15 -47 0
-50 2 -50 25 0 23 4 25 45 25 33 0 45 4 45 15 0 11 -12 15 -45 15 -38 0 -45 3
-45 20 0 17 7 20 45 20 33 0 45 4 45 15 0 12 -13 15 -60 15 l-60 0 0 -90z"/>
<path d="M2192 2085 c-103 -32 -162 -118 -170 -245 -5 -90 8 -142 51 -206 105
-156 360 -128 438 49 32 73 32 191 0 264 -53 121 -188 179 -319 138z m179 -74
c65 -41 84 -84 84 -196 0 -112 -19 -155 -84 -196 -77 -49 -167 -36 -228 34
-53 61 -67 155 -38 254 36 120 163 170 266 104z"/>
<path d="M1490 1815 l0 -275 35 0 35 0 0 245 0 245 145 0 145 0 0 -245 0 -245
35 0 35 0 0 275 0 275 -215 0 -215 0 0 -275z"/>
<path d="M2660 1868 c0 -247 -5 -273 -53 -273 -21 1 -29 -5 -34 -23 -8 -32 12
-44 60 -38 48 5 74 28 87 75 5 20 10 123 10 229 l0 192 100 0 100 0 0 -245 0
-245 35 0 35 0 0 275 0 275 -170 0 -170 0 0 -222z"/>
<path d="M3120 1815 l0 -275 35 0 c34 0 37 3 180 217 l145 218 0 -218 0 -217
35 0 35 0 0 275 0 275 -38 0 -37 0 -145 -217 -145 -218 -3 218 -2 217 -30 0
-30 0 0 -275z"/>
<path d="M3660 1815 l0 -275 35 0 35 0 0 130 c0 125 1 130 21 130 30 0 67 -42
138 -157 l63 -103 44 0 43 0 -66 110 c-36 61 -83 126 -104 144 l-38 35 23 14
c12 9 37 46 55 84 41 85 57 103 93 103 24 0 28 4 28 30 0 27 -3 30 -31 30 -66
0 -99 -27 -141 -118 -45 -96 -67 -122 -103 -122 l-25 0 0 120 0 120 -35 0 -35
0 0 -275z"/>
<path d="M4150 1868 c0 -247 -5 -273 -53 -273 -21 1 -29 -5 -34 -23 -8 -32 12
-44 60 -38 48 5 74 28 87 75 5 20 10 123 10 229 l0 192 100 0 100 0 0 -245 0
-245 35 0 35 0 0 275 0 275 -170 0 -170 0 0 -222z"/>
<path d="M4610 1815 l0 -275 35 0 c34 0 37 3 180 217 l145 218 0 -218 0 -217
35 0 35 0 0 275 0 275 -38 0 -37 0 -145 -217 -145 -218 -3 218 -2 217 -30 0
-30 0 0 -275z"/>
<path d="M5150 1815 l0 -275 35 0 35 0 0 130 0 130 145 0 145 0 0 -130 0 -130
35 0 35 0 0 275 0 275 -35 0 -35 0 0 -115 0 -115 -145 0 -145 0 0 115 0 115
-35 0 -35 0 0 -275z"/>
<path d="M5700 1815 l0 -275 35 0 c34 0 37 3 180 217 l145 218 0 -218 0 -217
35 0 35 0 0 275 0 275 -38 0 -37 0 -145 -217 -145 -218 -3 218 -2 217 -30 0
-30 0 0 -275z"/>
<path d="M6250 1815 l0 -275 35 0 35 0 0 130 c0 125 1 130 21 130 30 0 67 -42
138 -157 l63 -103 82 0 83 0 29 85 29 86 115 -3 115 -3 30 -82 30 -83 41 0 42
0 -105 258 c-58 141 -107 265 -110 275 -4 14 -14 17 -46 15 l-40 -3 -101 -267
c-56 -147 -104 -268 -107 -268 -4 0 -35 47 -69 105 -34 57 -79 120 -100 139
l-39 35 23 14 c12 9 37 46 55 84 41 85 57 103 93 103 24 0 28 4 28 30 0 27 -3
30 -31 30 -66 0 -99 -27 -141 -118 -45 -96 -67 -122 -103 -122 l-25 0 0 120 0
120 -35 0 -35 0 0 -275z m674 75 l43 -115 -85 -3 c-46 -2 -86 -1 -88 1 -3 2
11 44 29 93 19 49 38 105 42 124 4 19 10 31 12 25 2 -5 23 -62 47 -125z"/>
<path d="M7410 1816 l0 -276 35 0 35 0 2 206 3 207 130 -207 130 -206 38 0 37
0 0 275 0 275 -35 0 -35 0 -2 -211 -3 -211 -130 208 c-129 207 -131 209 -168
212 l-37 3 0 -275z"/>
<path d="M8293 1910 c-102 -140 -123 -176 -123 -205 l0 -35 120 0 120 0 0 -65
0 -65 30 0 30 0 0 65 0 65 40 0 c39 0 40 1 40 35 0 34 -1 35 -40 35 l-40 0 0
170 0 170 -27 -1 c-24 0 -44 -22 -150 -169z m114 -167 c-3 -2 -41 -3 -86 -1
l-81 3 82 115 83 115 3 -114 c1 -62 1 -115 -1 -118z"/>
<path d="M7945 1966 c-58 -25 -70 -50 -70 -138 0 -77 1 -81 32 -108 63 -56
156 -47 200 19 31 45 32 132 3 179 -33 54 -104 75 -165 48z m96 -65 c20 -16
24 -29 24 -71 0 -42 -4 -55 -24 -71 -50 -41 -100 -12 -108 63 -9 79 53 124
108 79z"/>
<path d="M7870 1610 l0 -30 130 0 130 0 0 30 0 30 -130 0 -130 0 0 -30z"/>
</g>
</svg>
