<?xml version="1.0" encoding="UTF-8"?>
<!-- Generator: Adobe Illustrator 21.0.0, SVG Export Plug-In . SVG Version: 6.00 Build 0)  -->
<svg version="1.1" id="Layer_1" xmlns="http://www.w3.org/2000/svg" xmlns:xlink="http://www.w3.org/1999/xlink" x="0px" y="0px" viewBox="0 0 1057 226" style="enable-background:new 0 0 1057 226;" xml:space="preserve">
<style type="text/css">
	.st0{fill-rule:evenodd;clip-rule:evenodd;fill:#164193;}
	.st1{fill:#006384;}
	.st2{fill:#006B8F;}
	.st3{fill:#007299;}
	.st4{fill:#0079A2;}
	.st5{fill:#007EA9;}
	.st6{fill:#0087B7;}
	.st7{fill:#008DC0;}
	.st8{fill:#0094C8;}
	.st9{fill:#009AD1;}
	.st10{fill:#00A0DA;}
	.st11{fill:#00A5E1;}
</style>
<path id="XMLID_145_" class="st0" d="M387.4,43.9v58.6h-4.9v8.4h26.1v-8.4h-4.9V43.7c6.2,0,10.9,4.1,12.2,13h6.4V35.9h-52.7v20.8  h6.4C377.1,48.4,381.3,43.9,387.4,43.9 M559.8,75.6l-14.5,26.9h-4.8v8.4h16.9v-8.4h-2.6l9.6-17.8l9,17.8h-2.9v8.4h23v-8.4h-3.2  l-17.2-34l13-24.2h4.9v-8.5h-17.4v8.5h3l-8.1,15.1l-7.7-15.1h3.5v-8.5h-24.6l-0.1,8.5h4.4L559.8,75.6z M340.9,113.3  c9.7,0,17.7-3.1,22.8-8.5V87h-5.3c-2.2,10.9-6.4,17.6-15,17.6c-9.7,0-16.7-14.7-16.7-31.1c0-16.5,5.8-31.3,16-31.3  c9.6,0,12.7,6.9,15,14.5h5.9V42.1c-6.1-4.7-11.3-8.5-21.6-8.5c-16.9,0-32.2,17.8-32.2,39.9S322.8,113.3,340.9,113.3z M455.4,102.5  h-4.9V83.3h5.6c18.6,0,26.3-11.8,26.3-23.9c-0.1-12-6.8-23.5-24.7-23.5h-28.6v8.4h4.9v58.2h-4.9v8.4h26.2V102.5z M450.5,44.4h2.7  c8.1,0,13.3,7.3,13.3,15.9s-5.2,14.6-12.9,14.6h-3h-0.1V44.4z M482.2,102.5h-3.5v8.4H494v-8.4h-2.9l4-14.5h17.4l4.1,14.5l-3.6,0v8.4  h23.9v-8.4h-3.4L515,36l-20.2,0v8.5h3.6L482.2,102.5z M510.2,79.9h-13l6.5-23.5L510.2,79.9z M283.2,113.3c9.7,0,17.7-3.1,22.9-8.5  V87h-5.3c-2.3,10.9-6.5,17.6-14.9,17.6c-9.8,0-16.8-14.7-16.8-31.1c0-16.5,5.8-31.3,16-31.3c9.7,0,12.9,6.9,15.1,14.5h6V42.1  c-6.1-4.7-11.2-8.5-21.6-8.5c-17,0-32.4,17.8-32.4,39.9S265.1,113.3,283.2,113.3z M90.3,76.3h18.5v26.2h-5v8.4H130v-8.4h-4.9V44.4  h4.9v-8.5h-26.1v8.5h5v23.8H90.3V44.4h5v-8.5H68.9v8.5H74v58.1h-5.1v8.4h26.4v-8.4h-5V76.3z M166.4,102.6h-7.1V44.4h7.1  c5.9,0,10.7,4.2,10.7,12.5h5.9V35.9H138v8.5h5.1v58.2H138v8.3h28.4V102.6z M21,88.1V44.4h5v-8.5H-0.4v8.5h5.1v58.1h-5.1v8.4h22  l18.1-51.7v43.4h-5.1v8.4h26.4v-8.4H56V44.4h5.1v-8.5H39.2L21,88.1z M216.3,33.6c-19.1,0-31,17.8-31,39.9s12.5,39.9,31,39.9  c19.3,0,31-17.8,31-39.9S235.2,33.6,216.3,33.6z M216.3,104.6c-9.3,0-14.1-14.7-14.1-31.2c0-16.5,5.1-31.2,14.1-31.2  c8.9,0,14.2,14.7,14.2,31.2C230.5,89.9,225.8,104.6,216.3,104.6z M674.1,119.1c-6.1-5.7-19.6,3-28.8,12.8  c-6.8,7.3-15.3,19.9-22.3,30.9c-9.5,7.2-22.2,16.7-26.2,19.5c-5.1,3.5-8.6,5.3-10.6,4.4c-2.4-1.2-3.3-6.3-3.6-10.4  c3.1-0.4,5.8-0.8,9.6-2.8c5.6-2.9,8.5-8.5,5.1-12.6c-2.9-3.4-8.5-2.2-13.7,1.5l3.1-4.8c0,0,1-0.8,1.3-0.9  c10.6-7.1,20.2-13.6,25.8-18.5c7.2-6.2,15.3-14.5,10.8-19.1c-5.7-6.1-20,3-29.2,12.9c-6.7,7.1-14.7,19.4-21.6,30.2  c-10.7,7.3-31,21.2-33.8,23.3c-2.8,2-4.2,0.3-2.2-2.8c1-1.6,2.3-3.8,3.6-6c0,0,10-15.6,10.3-16.2c0.3-0.6,0.2-1.4-0.7-1.4  c-0.9,0-5.9,0-7,0c-1,0-1.7,0.5-2.1,1.1c-0.3,0.7-2,3.2-2,3.2c-0.7-1.4-1.6-2.6-2.8-3.5c-4.2-3.1-13.6-1.8-20.8,4.5  c-7.4,5.5-26.1,19.1-29.2,21.4c-3.7,2.7-5,0.7-2.6-3c1-1.5,8.4-13.6,11-17.9c0.6-1-0.3-1.9-1.4-1.3c-5.8,1.9-10.6,1-12.6-2.8  c1.6-1.5,1.4-2.3,0.8-4.3c-0.4-1.4-1.6-2.9-3-1.7c0,0-0.1,0.1-0.1,0.1c-1,0.9-3,2.8-3.8,3.6c-0.7,0.6-0.8,1.4-0.8,1.7v0.2  c-9.6,6-35.2,22.3-38.4,24.6c-2.3,1.6-3.8,0.3-2.1-2.2c0.4-0.7,8-12.6,16.3-25.9l36.3-17.1l-0.2,0c0.4-0.1,0.6-0.2,0.6-0.2  c0.7-0.4,0.6-1.8-0.9-1.8c-0.3,0-9.9,0-23.7,0c6.1-9.7,10.8-17.2,11-17.6c0.6-1.1,0.2-1.7-0.5-1.7c-0.7,0-6.2,0-6.9,0  c-0.8,0-1.7,0.5-2.4,1.7c-0.3,0.4-5.1,8.1-11.1,17.6c-37.5,0-93.1,0-94.2,0c-1.7,0-2.5,0.6-3.1,1.6c-0.7,0.9-2,3-2.3,3.8  c-0.5,0.7-0.1,1.6,1.1,1.6c0.9,0,61.5,0,94.2,0c-2.8,4.5-5.7,9.1-8.4,13.3l-29.3,13.8c0-2.6,0.1-4.6,1-6.9c0.7-1.9,1.9-3,3.1-4.1  c0.7-0.7,0.7-1.5,0.1-1.9c-0.6-0.5-4.1-3.2-4.7-3.6c-0.5-0.3-1-0.5-2,0.1l-32.1,16.4c-0.1-2.6,0.2-4.6,1.1-6.9  c0.7-1.9,1.9-3,3.1-4.1c0.7-0.7,0.7-1.5,0.1-1.9c-0.7-0.5-4-3.2-4.7-3.6c-0.6-0.4-1.1-0.5-2.4,0.3c-0.5,0.4-22.8,14.2-35.3,22  c5.4-9.1,4.5-15.9,1.7-18.4c-4-3.5-12-1.7-18.9,3.9l-31.9,20.2c0,0,13.4-21.2,13.8-22.2c0.5-1,0.1-1.9-0.6-1.9c-0.8,0-5.4,0-6.4,0  c-0.9,0-2,0.7-2.6,1.7c-0.4,0.7-1,1.6-1.6,2.6c-0.4-1.3-1-2.3-2-3c-5.1-3.9-14.3-2.6-21.5,3.5c-4.5,3.3-26.4,19.2-30,21.8  c-3.6,2.7-5.3,0.7-2.9-3c2.5-3.8,6.5-10.2,8.4-13.3c2.4-4,1.9-9-1-10.5c-3.1-1.4-8.2-1.4-15.1,3.7c-1.1,0.7-1.7,1.2-2.8,2.1  c1.4-2.7,1.9-3.6,2.1-5.2c0.2-1.6-0.6-2.2-2.5-1.9c-7,1-12.6,1.9-20.9,2.1c-0.5,0-1.1,0-1.7,0c8.7-10.8,17.1-23.9,24.5-39.1  c-3.2,0.8-6.7,1.3-10.4,1.3h-0.2c-7.8,14.5-16.4,27.1-25.5,37.4c-14.7-1.7-34.4-9.5-37.3-40.8h-6.6c1.5,25.6,14.9,42,39.4,45.4  c-15.7,16.3-30.8,25.9-45.6,25.9c-16.9,0-25-10.1-28.1-19.9c5.4,1.2,7.9,1.4,15.2,0.4c6-0.9,10.5-3.4,13-5.1c1.5-1,1.1-1.6-0.9-1.4  c-4.2,0.6-11.9,1.3-18.7,0.6c-8.1-0.8-12.8-2-16.8-3.9c-3.9-1.9-5.4-0.4-4.2,2.7c5.9,16.2,17.1,33.1,41.5,33.1  c18.9,0,38.4-11.2,56.4-31.6c0.8,0,1.6,0,2.4,0c5.2-0.2,10.2-0.5,15.7-1.3c-0.9,1.7-2.2,3.6-4.3,7.1c-2.8,4.4-9.6,15.1-12.3,19.2  c-0.7,1.1-0.1,1.7,0.7,1.7c0.8,0,5.8,0,6.8,0c1,0,1.7-0.6,2.3-1.6c1.6-2.5,3.7-5.8,6.5-10.1c3.2-5,7.2-8.6,9.9-10.8  c5.2-4.5,9.5-6.4,10.7-6.1c0.8,0.1,1.7,1.8-0.1,4.5c-1.8,2.7-7.2,9.9-9.7,14.5c-2.2,4-1.9,9.3,3.3,10.4c4.2,0.9,7.8-1.5,12.5-4.8  c2.6-1.9,11.5-8.5,18.8-13.9c-2.9,6.7-2.5,13.5,1.7,16.7c3.7,2.8,8.7,1.8,14.2-2.1c-0.5,1.1-1.1,2.2-1.7,3.4  c-9,5.3-14.2,8.1-23,15.6c-6.5,5.6-9.3,12.6-5.4,16.4c6.1,6,16.9-2.1,24.9-13.5c3.1-4.5,13.1-19.9,13.1-19.9l28.7-18  c-3.5,7-3.1,14.3,1.2,17.9c4.4,3.6,10.3,1.9,15.9-3.2l38-24c-0.2,0.7-0.4,1-0.4,1.9c0,3.5,0.4,6.1,0.6,10.5c0,0-7,3.6-9.1,4.6  c-3.2,1.5-6.3,4.2-5.9,7.9c0.3,3.6,3.3,6,7.7,6c6.7,0,14.5-4.6,15-17.5c0-0.5,0-0.4,0-0.9l27-13.7c-0.2,0.7-0.7,1.6-0.7,3.1  c-0.2,3.5,0.4,6.1,0.5,10.5c0,0-6.9,3.6-9,4.6c-3.1,1.5-6.3,4.2-5.9,7.9c0.2,3.6,3.3,6,7.7,6c6.6,0,14.4-4.6,15-17.5  c0-0.5,0-0.4,0-0.9l25.8-12.2c-4.5,7.1-7.7,12.1-7.7,12.1c-0.3,0.5-1.1,1.7-1.5,2.4c-4.8,8.6-3.6,14.2,1.7,14.2  c4.2,0,7.4-2.3,12-5.6c3.2-2.3,24.8-16.3,34.2-22.4c1.2,3.4,4.7,5.2,8.1,5c0,0-6.3,9.7-7.4,11.9c-3.6,6.9-1.8,11.1,3.6,11.1  c4.2,0,7.4-2,12-5.2c2.5-1.8,10.8-7.9,18.1-13.3c-2.8,6.6-2.2,13.3,1.9,16.6c4,3.3,12.7-0.4,17.1-5.6c-0.7,4.2,0.5,7.5,4.1,7.5  c4.2,0,7.3-2.3,11.9-5.6c2.6-1.9,14.6-10.1,24.6-16.9c-1.9,3-12.4,19.5-13,20.4c-0.7,1.1,0.2,1.5,0.7,1.5c0.5,0,6.1,0,7.1,0  c0.9,0,1.6-0.6,2.1-1.4c0.6-0.8,8.6-13.2,8.6-13.2c0.6,6,2.4,14.8,7.3,15.7c5.5,1,10-2.3,15.2-5.8c3.7-2.6,12.3-9.1,20.4-15.3  c-3.3,5.2-10.9,17.3-11.4,18.1c-0.8,1.1-0.5,1.8,0.4,1.8c1,0,5.1,0,6.5,0s2.1-0.8,2.9-1.8c0.7-1.1,8.4-13.3,8.4-13.3  c2.6-2.7,5-5.2,7.1-7.2c4.6-4.6,8.1-6.4,9.3-6.2c0.9,0.1,0.6,1.8-1.2,4.5c-1.8,2.7-7.2,9.9-9.7,14.5c-2.2,4-2.9,8.8,2.3,10.1  c4,1,8.7-2,13.4-5c2.3-1.5,6.5-4.5,8.2-6.1c1.2-1.2,1.1-2.4,0.7-3c-0.7-1.1-1.6-0.8-2.5,0c-3.1,2.8-7.9,5.9-10.2,7.2  c-3.9,2.3-5.1,1.1-2.7-2.6c2.4-3.8,6.5-10.2,8.4-13.3c2.5-4,3.2-9,0.1-10.5c-3-1.4-8.4,0.2-14.8,5.3c-0.4,0.4-1,0.8-1.3,1.2l5-7.8  c0.2-0.2,0.5-0.3,0.7-0.5c10.2-7,20.9-14,26.4-18.9C668.8,133.3,679.3,123.7,674.1,119.1z M600.8,137.3c6.2-7.8,16.8-19,20.6-15.4  c2,1.8-0.7,6.1-11.4,14.7c-6.3,5.1-13.7,10.6-20.1,14.5C593.2,146.9,598,140.7,600.8,137.3z M458.2,144.7c5.3,0,8.9,0,10,0  l-14.2,6.7C455.4,149.1,456.8,146.9,458.2,144.7z M266.1,208c-3.9,6.8-11.1,15-15.4,12.5c-2.4-1.4-0.4-6.3,7.3-13.1  c4.1-3.5,13.4-9.3,13.4-9.3C269.4,201.8,267.5,205.4,266.1,208z M282.1,176.2c-5.7,9.6-12.4,12.9-14.7,11.1  c-2.4-1.7-0.4-8.2,4.9-15.3c5.2-7.1,10.4-10.6,13.2-9.3C289,164.3,286.7,168.6,282.1,176.2z M331.9,178.3  c-5.3,7.1-10.5,10.4-12.9,8.6c-2.3-1.7,0.1-7.9,5.4-15c5.3-7.1,9.5-10.6,11.9-8.8C338.7,164.9,337.2,171.1,331.9,178.3z   M360.8,190.3c-2.2,0.1-3.4-1.2-3.5-2.7c-0.2-1.8,0.7-2.7,2.3-3.6c0.9-0.5,8.3-4.4,8.3-4.4C367.5,188,364,190.2,360.8,190.3z   M395.4,190.3c-2.1,0.1-3.3-1.2-3.4-2.7c-0.2-1.8,0.7-2.7,2.3-3.6c1-0.5,8.4-4.4,8.4-4.4C402.1,188,398.5,190.2,395.4,190.3z   M531.4,176.3c-4.9,8.4-11.7,12.1-14.1,10.4c-2.3-1.7-0.9-7.1,4.1-14.3c5.1-7.4,9.7-10.9,13-9.5  C537.9,164.3,536.7,167.2,531.4,176.3z M577.1,172.8c1.1-2.1,3.6-4.6,6.2-6.7c2.5-2,7.5-4.6,8.8-2.3c1.3,2.5-0.5,6.3-5.3,8.1  C583.7,173,579.8,173.3,577.1,172.8z M659.3,136.7c-6.4,5.2-14,10.4-18.7,13.4c3.6-5.1,6.9-9.3,9.8-12.8  c6.2-7.8,17.1-18.9,20.8-15.3C672.7,123.5,670,128.1,659.3,136.7z M233.1,9.4c10.6,0.7,13.3,12.1,11.4,28.2c2.7,2.9,5,6.3,6.8,10  c5.4-27.5,1.7-45.2-14.9-47c-14-1.5-36.1,7.9-54.9,27.1H192C206.1,15.7,221.4,8.7,233.1,9.4z"/>
<g id="XMLID_133_">
	<path id="XMLID_144_" class="st1" d="M1034.5,76.4c0,2.1-1.7,3.9-3.9,3.9c-2.1,0-3.8-1.7-3.8-3.9c0-2.1,1.7-3.8,3.8-3.8   C1032.8,72.6,1034.5,74.3,1034.5,76.4"/>
	<path id="XMLID_143_" class="st2" d="M1050.6,98.2c0,3.3-2.6,5.9-5.9,5.9c-3.3,0-5.9-2.6-5.9-5.9s2.6-5.9,5.9-5.9   C1048,92.3,1050.6,95,1050.6,98.2"/>
	<path id="XMLID_142_" class="st3" d="M1057,127.9c0,4.1-3.3,7.4-7.4,7.4c-4.1,0-7.4-3.3-7.4-7.4c0-4.1,3.3-7.4,7.4-7.4   C1053.7,120.5,1057,123.8,1057,127.9"/>
	<path id="XMLID_141_" class="st4" d="M1052.5,156.8c0,5.1-4.2,9.3-9.3,9.3c-5.1,0-9.3-4.2-9.3-9.3c0-5.1,4.2-9.3,9.3-9.3   C1048.3,147.5,1052.5,151.7,1052.5,156.8"/>
	<path id="XMLID_140_" class="st5" d="M1032,182.6c0,5.4-4.4,9.9-9.9,9.9c-5.5,0-9.9-4.4-9.9-9.9s4.4-9.9,9.9-9.9   C1027.6,172.7,1032,177.1,1032,182.6"/>
	<path id="XMLID_139_" class="st6" d="M1001.1,196.1c0,6.9-5.6,12.5-12.5,12.5c-6.9,0-12.5-5.6-12.5-12.5s5.6-12.5,12.5-12.5   C995.6,183.6,1001.1,189.2,1001.1,196.1"/>
	<path id="XMLID_138_" class="st7" d="M959.6,192.9c0,8.3-6.7,15-15,15c-8.3,0-15-6.7-15-15c0-8.3,6.7-15,15-15   C952.9,177.9,959.6,184.6,959.6,192.9"/>
	<path id="XMLID_137_" class="st8" d="M925.6,162.9c0,9.4-7.6,17-17,17c-9.4,0-17-7.6-17-17c0-9.4,7.6-17,17-17   C917.9,145.9,925.6,153.5,925.6,162.9"/>
	<path id="XMLID_136_" class="st9" d="M913.1,112.9c0,10.2-8.3,18.5-18.5,18.5c-10.2,0-18.5-8.3-18.5-18.5s8.3-18.5,18.5-18.5   C904.8,94.4,913.1,102.7,913.1,112.9"/>
	<path id="XMLID_135_" class="st10" d="M937.8,61.8c0,12.1-9.8,21.9-21.9,21.9c-12.1,0-21.9-9.8-21.9-21.9s9.8-21.9,21.9-21.9   C928,39.9,937.8,49.7,937.8,61.8"/>
	<path id="XMLID_134_" class="st11" d="M995,32.3c0,14-11.3,25.3-25.3,25.3c-14,0-25.3-11.3-25.3-25.3c0-14,11.3-25.3,25.3-25.3   C983.7,7,995,18.3,995,32.3"/>
</g>
<path id="XMLID_130_" class="st11" d="M813.2,52.4h-88.3V35.9h118.5L741.7,191.7h-20.1L813.2,52.4z"/>
<path id="XMLID_85_" class="st11" d="M855.9,183c0,6.9-5.6,12.5-12.5,12.5s-12.5-5.6-12.5-12.5c0-6.9,5.6-12.5,12.5-12.5  S855.9,176.1,855.9,183"/>
</svg>